<svg width="327" height="231" viewBox="0 0 327 231" fill="none" xmlns="http://www.w3.org/2000/svg">
<rect width="327" height="231" fill="#264812"/>
<path d="M79.316 150.584C85.1829 143.526 88.6789 134.646 88.6789 124.999C88.6789 114.669 84.6713 105.221 78.0368 97.945C82.1811 92.8519 84.6483 86.4907 84.6483 79.5868C84.6483 62.8667 70.2105 49.3119 52.4011 49.3119C34.5917 49.3119 20.1539 62.8667 20.1539 79.5868C20.1539 82.9266 20.739 86.1387 21.8049 89.1439C8.75364 96.389 0 109.734 0 124.999C0 146.746 17.7634 164.595 40.4126 166.462C40.3468 167.141 40.3085 167.824 40.3085 168.519C40.3085 181.059 51.1365 191.224 64.495 191.224C77.8515 191.224 88.6796 181.059 88.6796 168.519C88.6796 161.224 85.0111 154.738 79.316 150.584Z" fill="#AEADAD"/>
<path d="M286.601 166.461C286.64 167.13 286.68 167.835 286.68 168.505C286.68 181.06 275.878 191.239 262.504 191.239C260.525 191.239 258.626 191.016 256.806 190.57C247.112 188.379 239.713 180.726 238.525 171.253C238.407 170.362 238.327 169.433 238.327 168.504C238.327 167.538 238.407 166.572 238.525 165.643C238.565 165.42 238.565 165.197 238.605 164.974C239.594 159.142 242.957 154.052 247.706 150.598C243.709 145.843 240.86 140.234 239.396 134.142C238.882 132.061 238.565 129.869 238.407 127.678C238.367 126.786 238.327 125.895 238.327 125.003C238.327 117.759 240.306 110.924 243.787 105.017H243.827C243.827 104.98 243.827 104.98 243.827 104.943C244.658 103.532 245.568 102.157 246.557 100.857C247.309 99.8542 248.1 98.8882 248.971 97.9594C245.212 93.316 242.838 87.6323 242.442 81.4653C242.402 80.8339 242.363 80.2026 242.363 79.5706C242.363 77.6758 242.561 75.8188 242.916 74.0356C245.092 62.8541 253.837 53.8641 265.233 50.6322C268.201 49.7406 271.326 49.2945 274.61 49.2945C279.754 49.2945 284.621 50.4092 288.934 52.4526C295.225 55.3871 300.369 60.2164 303.495 66.1231C305.671 70.1723 306.858 74.7419 306.858 79.5706C306.858 82.914 306.265 86.1459 305.196 89.1547C318.255 96.3998 327 109.736 327 125.004C327 146.735 309.234 164.604 286.601 166.461Z" fill="#A8A2A2"/>
<path d="M286.442 115.42C286.442 119.023 286.284 122.59 285.928 126.119C283.832 147.331 275.641 166.907 263.019 183.215C261.831 184.738 260.604 186.262 259.299 187.747C258.508 188.713 257.677 189.642 256.806 190.571C253.324 194.397 249.525 198.038 245.529 201.381C244.936 201.864 244.381 202.347 243.788 202.83C242.561 203.833 241.295 204.799 240.03 205.765C238.684 206.768 237.339 207.733 235.954 208.662C234.252 209.851 232.551 210.965 230.77 212.043C229.583 212.749 228.396 213.454 227.209 214.16C226.615 214.494 225.982 214.829 225.349 215.163C224.242 215.757 223.173 216.352 222.025 216.909C216.723 219.659 211.144 221.998 205.368 223.93C203.904 224.45 202.4 224.933 200.896 225.379C199.512 225.787 198.126 226.197 196.702 226.567C196.108 226.716 195.515 226.902 194.882 227.013C193.26 227.422 191.558 227.831 189.896 228.165C189.501 228.239 189.105 228.35 188.669 228.387C187.759 228.61 186.849 228.759 185.939 228.907C185.108 229.056 184.238 229.204 183.367 229.316C182.338 229.502 181.27 229.65 180.202 229.762C179.331 229.873 178.461 229.984 177.59 230.096C176.68 230.17 175.731 230.281 174.782 230.356C173.832 230.43 172.843 230.504 171.814 230.579C169.083 230.764 166.313 230.839 163.504 230.839C159.627 230.839 155.748 230.69 151.95 230.318C119.306 227.495 90.3823 212.673 70.2022 190.57C51.7242 170.399 40.5659 144.135 40.5659 115.419C40.5659 114.639 40.5659 113.859 40.6055 113.116C41.08 89.9726 48.7965 68.5012 61.7743 50.6334C83.4182 20.6547 119.742 0.780092 161.051 0.0371758C161.842 0 162.673 0 163.504 0C205.802 0 243.155 20.0599 265.234 50.6334C278.608 69.096 286.442 91.3853 286.442 115.42Z" fill="#EBD1B2"/>
<path d="M263.013 183.221C240.662 212.082 204.415 230.842 163.506 230.842C159.61 230.842 155.761 230.672 151.962 230.336L84.9829 167.455L244.204 165.562L263.013 183.221Z" fill="#DABC9D"/>
<path d="M285.924 126.115C283.848 147.336 275.655 166.896 263.013 183.221C245.611 205.696 219.777 222.044 189.877 228.18L61.8458 107.978L65.006 105.013H263.453L285.924 126.115Z" fill="#DABC9D"/>
<path d="M110.409 135.028C129.4 135.028 144.795 120.574 144.795 102.745C144.795 84.9155 129.4 70.4619 110.409 70.4619C91.4181 70.4619 76.0229 84.9155 76.0229 102.745C76.0229 120.574 91.4181 135.028 110.409 135.028Z" fill="#DCD9BC"/>
<path d="M216.598 135.028C235.589 135.028 250.985 120.575 250.985 102.745C250.985 84.9151 235.589 70.4613 216.598 70.4613C197.607 70.4613 182.211 84.9151 182.211 102.745C182.211 120.575 197.607 135.028 216.598 135.028Z" fill="#DCD9BC"/>
<path d="M154.047 100.3C153.731 95.8056 152.623 91.4968 150.842 87.5214C147.677 80.4634 142.375 74.5195 135.727 70.2844C129.08 66.0866 121.047 63.5982 112.422 63.5982C106.684 63.5982 101.184 64.7122 96.1987 66.6814C91.6877 68.4646 87.6123 70.9536 84.0907 74.0368C81.7168 76.0796 79.6194 78.3833 77.8394 80.8717C73.8432 86.4811 71.2706 93.1307 70.7961 100.3C70.7565 101.118 70.7169 101.935 70.7169 102.752C70.7169 103.496 70.7565 104.275 70.7961 105.018C70.8753 106.615 71.0733 108.213 71.3901 109.736C71.9438 112.596 72.8143 115.382 74.0016 117.983C74.3969 118.874 74.8325 119.729 75.2681 120.583C78.236 125.97 82.4698 130.613 87.6136 134.142C88.0882 134.513 88.6029 134.848 89.1171 135.183C90.4621 136.037 91.8078 136.817 93.2716 137.485C99.0088 140.309 105.538 141.906 112.423 141.906C118.16 141.906 123.66 140.791 128.646 138.823C136.164 135.813 142.495 130.873 147.006 124.632C150.171 120.249 152.387 115.159 153.456 109.735C153.772 108.212 153.97 106.615 154.049 105.017C154.089 104.274 154.128 103.494 154.128 102.751C154.126 101.935 154.087 101.118 154.047 100.3ZM139.367 105.018C139.13 107.693 138.457 110.256 137.389 112.634C135.331 117.203 131.888 121.104 127.575 123.815C125.399 125.189 123.025 126.304 120.492 127.01C117.96 127.753 115.23 128.161 112.42 128.161C108.661 128.161 105.139 127.455 101.895 126.192C97.0283 124.261 92.8737 121.029 89.9454 116.942C88.5205 114.937 87.3339 112.708 86.5426 110.293C85.9888 108.622 85.6325 106.838 85.4741 105.018C85.3949 104.275 85.3553 103.532 85.3553 102.752C85.3553 99.2234 86.107 95.8799 87.4527 92.8333C89.5098 88.3015 92.9523 84.4004 97.3055 81.6518C99.4418 80.2775 101.816 79.2006 104.349 78.4577C106.921 77.7142 109.611 77.3058 112.421 77.3058C116.179 77.3058 119.741 78.0488 122.946 79.3121C127.813 81.2441 131.968 84.4754 134.896 88.5245C136.36 90.568 137.507 92.7962 138.299 95.1742C139.09 97.5511 139.485 100.115 139.485 102.752C139.486 103.533 139.446 104.275 139.367 105.018Z" fill="#3D3D3D"/>
<path d="M67.6238 109.744C64.8418 109.744 62.5847 107.625 62.5847 105.013C62.5847 102.401 64.8418 100.283 67.6238 100.283H78.1587C80.9427 100.283 83.1979 102.401 83.1979 105.013C83.1979 107.625 80.9421 109.744 78.1587 109.744H67.6238Z" fill="#3D3D3D"/>
<path d="M256.212 100.3C255.738 93.1307 253.166 86.4811 249.169 80.8717C247.388 78.3833 245.291 76.0796 242.917 74.0368C239.395 70.9536 235.32 68.4646 230.809 66.6814C225.823 64.7122 220.323 63.5982 214.586 63.5982C205.96 63.5982 197.928 66.0866 191.28 70.2844C184.633 74.5195 179.331 80.4628 176.165 87.5214C174.385 91.4968 173.237 95.8428 172.961 100.375C172.921 101.155 172.881 101.972 172.881 102.752C172.881 103.496 172.921 104.275 172.961 105.018C173.04 106.578 173.238 108.102 173.554 109.587C174.583 115.085 176.838 120.211 180.004 124.632C184.515 130.873 190.846 135.814 198.364 138.823C203.349 140.792 208.849 141.907 214.587 141.907C223.213 141.907 231.244 139.418 237.892 135.183C238.407 134.849 238.921 134.515 239.396 134.143C245.331 130.056 250.08 124.484 253.007 117.983C254.194 115.382 255.065 112.596 255.619 109.736C255.935 108.213 256.133 106.615 256.212 105.018C256.252 104.275 256.291 103.495 256.291 102.752C256.291 101.935 256.252 101.118 256.212 100.3ZM206.514 127.01C203.982 126.304 201.608 125.189 199.432 123.815C195.119 121.103 191.676 117.203 189.618 112.634C188.55 110.256 187.877 107.693 187.64 105.018C187.561 104.275 187.521 103.532 187.521 102.752C187.521 100.115 187.916 97.5511 188.708 95.1742C189.5 92.7962 190.647 90.568 192.111 88.5245C195.039 84.4754 199.194 81.2435 204.061 79.3121C207.266 78.0488 210.827 77.3058 214.586 77.3058C217.395 77.3058 220.086 77.7142 222.658 78.4577C225.19 79.2006 227.564 80.2781 229.701 81.6518C234.053 84.401 237.496 88.3015 239.554 92.8333C240.899 95.8799 241.65 99.2234 241.65 102.752C241.65 103.532 241.611 104.275 241.532 105.018C241.373 106.838 241.017 108.621 240.463 110.293C239.672 112.708 238.484 114.937 237.06 116.942C234.132 121.029 229.977 124.261 225.111 126.192C221.866 127.455 218.345 128.161 214.585 128.161C211.777 128.161 209.047 127.753 206.514 127.01Z" fill="#3D3D3D"/>
<path d="M259.384 109.744H248.848C246.066 109.744 243.81 107.625 243.81 105.013C243.81 102.401 246.065 100.283 248.848 100.283H259.384C262.166 100.283 264.423 102.401 264.423 105.013C264.423 107.625 262.166 109.744 259.384 109.744Z" fill="#3D3D3D"/>
<path d="M151.497 109.744H172.375C175.159 109.744 177.414 107.625 177.414 105.013C177.414 102.401 175.158 100.283 172.375 100.283H151.497C148.713 100.283 146.458 102.401 146.458 105.013C146.458 107.625 148.713 109.744 151.497 109.744Z" fill="#3D3D3D"/>
<path d="M154.517 153.263C161.196 153.263 166.61 148.18 166.61 141.91C166.61 135.64 161.196 130.557 154.517 130.557C147.839 130.557 142.425 135.64 142.425 141.91C142.425 148.18 147.839 153.263 154.517 153.263Z" fill="#EBD1B2"/>
<path d="M215.936 154.37C209.668 145.855 198.529 136.63 185.299 137.341C190.173 147.983 178.359 163.972 163.504 162.197C148.65 163.972 136.835 147.984 141.71 137.341C128.48 136.63 117.341 145.854 111.073 154.37C101.606 167.231 83.8806 163.535 83.8806 163.535C83.8806 163.535 93.2161 184.43 124.318 186.795C146.389 188.473 163.504 169.766 163.504 169.766C163.504 169.766 180.621 188.473 202.691 186.795C233.794 184.43 243.129 163.535 243.129 163.535C243.129 163.535 225.403 167.231 215.936 154.37Z" fill="#AEADAD"/>
<path d="M175.5 184.5C175.5 193 171.5 193.707 163.5 193.707C156 193.707 151 193.165 151 183.5C151.5 177.5 154 175.207 163.5 175.207C173 175.207 175.5 176.934 175.5 184.5Z" fill="#270707"/>
<path d="M175.073 182C175.073 182 175.073 184 163.901 183.5C154.512 183.5 151.5 184 151.5 182C151.5 177.5 153.573 175.498 163.901 175.498C174.229 175.498 175.073 178 175.073 182Z" fill="white"/>
</svg>
